<svg xmlns="http://www.w3.org/2000/svg" width="31" height="20" viewBox="0 0 31 20">
  <path id="behance" d="M9.18,0a11.854,11.854,0,0,1,2.542.25,5.419,5.419,0,0,1,1.967.826A3.82,3.82,0,0,1,14.96,2.6a5.48,5.48,0,0,1,.451,2.352,4.462,4.462,0,0,1-.67,2.52,4.892,4.892,0,0,1-1.981,1.652,4.689,4.689,0,0,1,2.692,1.862,5.648,5.648,0,0,1,.888,3.207,5.616,5.616,0,0,1-.571,2.619,5.058,5.058,0,0,1-1.543,1.805,6.76,6.76,0,0,1-2.218,1.043A9.755,9.755,0,0,1,9.454,20H0V0ZM8.634,8.094a3.029,3.029,0,0,0,1.889-.561,2.141,2.141,0,0,0,.734-1.82,2.375,2.375,0,0,0-.245-1.148,1.844,1.844,0,0,0-.653-.7,2.729,2.729,0,0,0-.943-.35,6.123,6.123,0,0,0-1.11-.1H4.29V8.094H8.634Zm.245,8.486a5.6,5.6,0,0,0,1.2-.126,2.912,2.912,0,0,0,1.011-.417,2.1,2.1,0,0,0,.7-.8,2.807,2.807,0,0,0,.259-1.288,2.62,2.62,0,0,0-.845-2.2,3.552,3.552,0,0,0-2.241-.658H4.29V16.58H8.88Zm12.858-.417a3.413,3.413,0,0,0,2.514.868,3.4,3.4,0,0,0,2.021-.6,2.482,2.482,0,0,0,1.038-1.274h3.415a6.648,6.648,0,0,1-2.513,3.724A7.263,7.263,0,0,1,24.114,20a7.891,7.891,0,0,1-3.006-.547A6.233,6.233,0,0,1,18.841,17.9a7.02,7.02,0,0,1-1.435-2.408,9.009,9.009,0,0,1-.5-3.083A8.625,8.625,0,0,1,17.42,9.38a6.927,6.927,0,0,1,3.757-4.032,7.158,7.158,0,0,1,2.937-.588,6.582,6.582,0,0,1,3.142.714,6.324,6.324,0,0,1,2.2,1.916A7.994,7.994,0,0,1,30.7,10.134a10.483,10.483,0,0,1,.273,3.221H20.782a4.079,4.079,0,0,0,.956,2.808Zm4.385-7.618A2.687,2.687,0,0,0,24,7.762a3.307,3.307,0,0,0-1.543.322,2.921,2.921,0,0,0-1.5,1.806,4.654,4.654,0,0,0-.178.952h6.311a4.652,4.652,0,0,0-.966-2.3Zm-6-7.53H28V3.257H20.119Z" transform="translate(0 0.001)" fill="#1769ff"/>
</svg>
