<svg id="dribbble" xmlns="http://www.w3.org/2000/svg" width="24" height="24" viewBox="0 0 24 24">
  <g id="Color-" transform="translate(0 0)">
    <path id="Dribbble-2" data-name="Dribbble" d="M618.727,181.5a44.323,44.323,0,0,0-2-7.319,14.853,14.853,0,0,1,6.387.448A10.251,10.251,0,0,1,618.727,181.5ZM613,183.249a10.207,10.207,0,0,1-6.53-2.349c.136.11.23.179.23.179s1.964-4.283,8.043-6.4c.022-.008.046-.014.069-.021a42.6,42.6,0,0,1,2.189,7.78,10.22,10.22,0,0,1-4,.813ZM602.751,173c0-.109.005-.216.008-.323a37.561,37.561,0,0,0,10.522-1.46c.293.574.574,1.16.831,1.743-.136.037-.27.078-.4.123a16.207,16.207,0,0,0-8.336,6.762s0,0,0,.005A10.208,10.208,0,0,1,602.751,173Zm5.876-9.266a61.115,61.115,0,0,1,3.806,5.9,37.913,37.913,0,0,1-9.462,1.252A10.25,10.25,0,0,1,608.627,163.733Zm1.918-.683a.005.005,0,0,1,0,0l-.031.005a.256.256,0,0,0,.033-.008Zm9.223,2.261a11.163,11.163,0,0,1-5.354,3.71,52.057,52.057,0,0,0-3.83-5.979,10.234,10.234,0,0,1,9.184,2.269Zm3.477,7.587a23.707,23.707,0,0,0-7.137-.336c-.073-.175-.146-.351-.222-.527q-.321-.752-.682-1.487a13.2,13.2,0,0,0,5.71-4.055A10.207,10.207,0,0,1,623.246,172.9Zm1.511-2.313a12.051,12.051,0,0,0-.7-2.256,11.857,11.857,0,0,0-1.107-2.037,12,12,0,1,0-19.9,13.42,12.235,12.235,0,0,0,1.463,1.775,12.024,12.024,0,0,0,3.814,2.57,11.787,11.787,0,0,0,2.255.7,12.016,12.016,0,0,0,4.833,0,11.784,11.784,0,0,0,2.255-.7,11.953,11.953,0,0,0,2.038-1.106,11.981,11.981,0,0,0,3.24-3.238,11.983,11.983,0,0,0,1.808-4.294,12.142,12.142,0,0,0,0-4.833Z" transform="translate(-601 -161)" fill="#ec4989" fill-rule="evenodd"/>
  </g>
</svg>
