<svg id="instagram" xmlns="http://www.w3.org/2000/svg" xmlns:xlink="http://www.w3.org/1999/xlink" width="24" height="24" viewBox="0 0 24 24">
  <defs>
    <radialGradient id="radial-gradient" cx="0.065" cy="0.978" r="1.27" gradientUnits="objectBoundingBox">
      <stop offset="0.09" stop-color="#fa8f21"/>
      <stop offset="0.78" stop-color="#d82d7e"/>
    </radialGradient>
    <radialGradient id="radial-gradient-2" cx="0.693" cy="0.946" r="1.117" gradientUnits="objectBoundingBox">
      <stop offset="0.64" stop-color="#8c3aaa" stop-opacity="0"/>
      <stop offset="1" stop-color="#8c3aaa"/>
    </radialGradient>
  </defs>
  <path id="Path_16" data-name="Path 16" d="M6.086,23.915a8.08,8.08,0,0,1-2.718-.5,4.548,4.548,0,0,1-1.683-1.095,4.513,4.513,0,0,1-1.1-1.683,8.08,8.08,0,0,1-.5-2.718C.014,16.373,0,15.91,0,12S.016,7.629.085,6.085a8.126,8.126,0,0,1,.5-2.717,4.565,4.565,0,0,1,1.1-1.684A4.519,4.519,0,0,1,3.367.588a8.08,8.08,0,0,1,2.718-.5C7.629.014,8.092,0,12,0s4.371.016,5.915.085a8.126,8.126,0,0,1,2.718.5,4.53,4.53,0,0,1,1.683,1.095,4.533,4.533,0,0,1,1.1,1.684,8.08,8.08,0,0,1,.5,2.718C23.986,7.629,24,8.092,24,12s-.014,4.371-.085,5.915a8.118,8.118,0,0,1-.5,2.718,4.847,4.847,0,0,1-2.779,2.778,8.08,8.08,0,0,1-2.718.5C16.372,23.986,15.908,24,12,24s-4.371-.014-5.914-.085" fill="url(#radial-gradient)"/>
  <path id="Path_17" data-name="Path 17" d="M6.086,23.915a8.08,8.08,0,0,1-2.718-.5,4.548,4.548,0,0,1-1.683-1.095,4.513,4.513,0,0,1-1.1-1.683,8.08,8.08,0,0,1-.5-2.718C.014,16.373,0,15.91,0,12S.016,7.629.085,6.085a8.126,8.126,0,0,1,.5-2.717,4.565,4.565,0,0,1,1.1-1.684A4.519,4.519,0,0,1,3.367.588a8.08,8.08,0,0,1,2.718-.5C7.629.014,8.092,0,12,0s4.371.016,5.915.085a8.126,8.126,0,0,1,2.718.5,4.53,4.53,0,0,1,1.683,1.095,4.533,4.533,0,0,1,1.1,1.684,8.08,8.08,0,0,1,.5,2.718C23.986,7.629,24,8.092,24,12s-.014,4.371-.085,5.915a8.118,8.118,0,0,1-.5,2.718,4.847,4.847,0,0,1-2.779,2.778,8.08,8.08,0,0,1-2.718.5C16.372,23.986,15.908,24,12,24s-4.371-.014-5.914-.085" fill="url(#radial-gradient-2)"/>
  <path id="Path_18" data-name="Path 18" d="M441.794,448.437a2.972,2.972,0,1,1,2.972,2.972,2.972,2.972,0,0,1-2.972-2.972m-1.607,0a4.578,4.578,0,1,0,4.578-4.578,4.578,4.578,0,0,0-4.578,4.578m8.268-4.76a1.07,1.07,0,1,0,1.07-1.069h0a1.07,1.07,0,0,0-1.07,1.069M441.164,455.7a4.928,4.928,0,0,1-1.656-.306,2.952,2.952,0,0,1-1.692-1.692,4.924,4.924,0,0,1-.306-1.656c-.043-.94-.052-1.222-.052-3.6s.009-2.663.052-3.6a4.961,4.961,0,0,1,.306-1.656,2.951,2.951,0,0,1,1.692-1.692,4.923,4.923,0,0,1,1.656-.306c.94-.043,1.222-.052,3.6-.052s2.663.009,3.6.052a4.96,4.96,0,0,1,1.656.306,2.951,2.951,0,0,1,1.692,1.692,4.923,4.923,0,0,1,.306,1.656c.043.941.052,1.222.052,3.6s-.009,2.663-.052,3.6a4.945,4.945,0,0,1-.306,1.656,2.952,2.952,0,0,1-1.692,1.692,4.924,4.924,0,0,1-1.656.306c-.94.043-1.222.052-3.6.052s-2.663-.009-3.6-.052m-.074-16.12a6.537,6.537,0,0,0-2.165.414,4.558,4.558,0,0,0-2.608,2.608,6.54,6.54,0,0,0-.414,2.165c-.044.951-.054,1.255-.054,3.676s.01,2.725.054,3.676a6.54,6.54,0,0,0,.414,2.165,4.559,4.559,0,0,0,2.608,2.608,6.544,6.544,0,0,0,2.165.414c.951.043,1.255.054,3.676.054s2.725-.01,3.676-.054a6.541,6.541,0,0,0,2.165-.414,4.559,4.559,0,0,0,2.608-2.608,6.522,6.522,0,0,0,.414-2.165c.043-.951.053-1.255.053-3.676s-.01-2.725-.053-3.676a6.538,6.538,0,0,0-.414-2.165,4.559,4.559,0,0,0-2.607-2.608,6.529,6.529,0,0,0-2.165-.414c-.951-.044-1.255-.054-3.675-.054s-2.725.01-3.677.054" transform="translate(-432.741 -436.386)" fill="#fff"/>
</svg>
