<svg xmlns="http://www.w3.org/2000/svg" width="50" height="38" viewBox="0 0 50 38">
  <path id="Path_350" data-name="Path 350" d="M41.272-15.412a64.582,64.582,0,0,1,.468-8.479,23.016,23.016,0,0,1,1.5-5.888,12.513,12.513,0,0,1,2.712-4.083A21.318,21.318,0,0,1,50-36.924a18.164,18.164,0,0,0-.616,2.067,15.856,15.856,0,0,0-.321,1.937q-.1.968-.148,1.963t-.049,2.2q0,2.879,0,4.815t.025,3.376q.025,1.439.025,2.617t.025,2.617q.025,1.439.025,3.376v4.868L41.371,1.076Zm-.3,6.072-4.586-3.4-.049.052,4.635,3.664v1.1L36.637-11.12l4.339,3.507v1.047L36.933-9.549h-.049L40.976-6.2V-5.2l-3.8-2.774v.052l3.8,3.088v.994l-3.5-2.512-.049.052,3.55,2.879v.994L37.771-4.786q-.049,0-.049.052l3.254,2.722v.89L38.018-3.164v.052l2.959,2.46.049,1.727L8.333-24.31v-2.722l1.085.68V-26.4l-1.085-.837v-1.1l2.613,1.675L8.333-28.654V-29.7l4.043,2.774q.049,0,.049-.052L8.333-29.963v-.994l5.572,3.716h.049L8.333-31.376v-.942l7.1,4.815.049-.052-7.15-5.182v-.89l8.58,5.81L8.333-34.1v-1.675L40.927-11.12ZM8.037.971H0V-27.66l8.037-8.113Z" transform="translate(0 36.924)" fill="#0b6cfd"/>
</svg>
